<svg width="183" height="138" viewBox="0 0 183 138" fill="none" xmlns="http://www.w3.org/2000/svg">
<path d="M167.921 1.43997L16.3128 -2.4094e-07C8.04727 0.224738 1.38968 6.75706 1.00798 15.0168L1.92752e-06 121.143C0.22474 129.408 6.75706 136.066 15.0168 136.447L166.625 137.887C174.891 137.663 181.548 131.13 181.93 122.871L182.938 16.7448C182.836 12.767 181.23 8.97571 178.443 6.13545C175.656 3.2952 171.896 1.61726 167.921 1.43997ZM166.769 122.727L15.1608 121.287L16.1688 15.1608L167.777 16.6008L166.769 122.727ZM106.27 106.99L106.36 97.5142C106.479 84.9307 81.2212 78.3227 68.6377 78.2032C56.0542 78.0837 30.6752 84.2108 30.5556 96.7942L30.4656 106.27L106.27 106.99ZM69.0877 30.8256C64.0616 30.7779 59.2223 32.7287 55.6346 36.249C52.0468 39.7692 50.0044 44.5705 49.9567 49.5967C49.933 52.0853 50.3998 54.5543 51.3303 56.8626C52.2609 59.1709 53.637 61.2733 55.38 63.0498C58.9003 66.6375 63.7016 68.6799 68.7277 68.7277C71.2164 68.7513 73.6853 68.2845 75.9936 67.354C78.3019 66.4235 80.4043 65.0474 82.1808 63.3043C83.9573 61.5613 85.3731 59.4854 86.3473 57.1952C87.3215 54.905 87.8351 52.4453 87.8587 49.9567C87.8823 47.468 87.4156 44.999 86.485 42.6907C85.5545 40.3824 84.1784 38.28 82.4354 36.5035C80.6923 34.7271 78.6164 33.3113 76.3262 32.3371C74.036 31.3629 71.5764 30.8493 69.0877 30.8256ZM106.99 31.1856L106.918 38.766L152.4 39.198L152.472 31.6176L106.99 31.1856ZM106.846 46.3464L106.774 53.9269L152.256 54.3588L152.328 46.7784L106.846 46.3464ZM106.702 61.5073L106.63 69.0877L136.951 69.3757L137.023 61.7953L106.702 61.5073Z" fill="#DED27C"/>
</svg>
